<svg xmlns="http://www.w3.org/2000/svg" width="1240" height="1240"><path d="M6.556 6.556L0 13.111v1213.778l6.556 6.555 6.555 6.556h1213.821l7.034-7.104 7.034-7.104V618.729c0-333.884-.275-606.787-.611-606.451-.336.336-3.511-2.289-7.056-5.834L1226.889 0H13.111L6.556 6.556M.497 620c0 334.125.114 470.812.253 303.75.139-167.063.139-440.438 0-607.5C.611 149.187.497 285.875.497 620M44 221.5V399h355V44H44v177.5m399 0V399h354V44H443v177.5m398 0V399h355V44H841v177.5m-688.5-87.57c-8.099.843-12.633 3.227-14.888 7.828a465.18 465.18 0 01-2.723 5.478c-1.319 2.576-1.049 11.76.463 15.764 2.548 6.75 3.175 7.761 6.588 10.619l3.441 2.881 48.907.5 48.908.5-6.098 7.638c-3.354 4.2-6.098 7.945-6.098 8.321 0 .376-.562 1.252-1.25 1.947-.687.695-2.15 2.518-3.25 4.05s-3.823 5.094-6.05 7.915c-2.228 2.821-5.141 6.704-6.473 8.629-1.333 1.925-2.776 3.95-3.207 4.5-1.566 1.996-15.33 20.582-17.588 23.749-1.274 1.788-4.813 6.626-7.865 10.751-6.27 8.478-16.317 23.574-16.317 24.519 0 .343-.729 1.353-1.62 2.244-1.241 1.241-1.495 2.835-1.085 6.806.863 8.358 5.537 14.555 14.166 18.78 9.219 4.515 13.754 3.517 22.047-4.849 2.595-2.618 18.327-21.518 23.992-28.824l9.21-11.877c5.935-7.655 16.006-21.092 34.633-46.208 1.186-1.6 4.294-5.595 6.907-8.877 2.613-3.283 4.75-6.302 4.75-6.708 0-.407 2.472-3.837 5.494-7.623s5.497-7.408 5.5-8.05c.003-.641.343-1.316.756-1.5 1.54-.684 10.311-14.691 13.227-21.121 4.768-10.517 4.125-13.621-4.81-23.221l-5.11-5.491-69.279.152c-38.103.084-71.978.434-75.278.778m462-.305c-2.681.685-7.632 3.074-9.575 4.621-4.463 3.554-4.962 5.837-6.084 27.883-1.812 35.594-2.215 100.263-.732 117.36l1.301 14.989 3.49 3.197c3.567 3.268 7.319 5.131 14.86 7.381 4.447 1.327 4.919 1.223 12.549-2.769C642.258 300.036 643 294.38 643 209.58v-62.815l-3.75-3.689c-7.516-7.394-10.764-9.234-16.964-9.61-3.183-.193-6.686-.121-7.786.159m329.137 1.851c-6.88 3.49-7.634 4.276-10.806 11.252-6.13 13.485-5.874 13.91 32.022 53.08 10.806 11.17 19.803 20.751 19.994 21.292.327.926-5.973 7.677-29.246 31.337-12.114 12.315-22.112 23.876-24.108 27.877-2.453 4.917-1.856 10.491 1.833 17.122 2.731 4.909 4.329 6.507 9.238 9.238 6.631 3.689 12.205 4.286 17.122 1.833 4.001-1.996 15.562-11.994 27.877-24.108 23.66-23.273 30.411-29.573 31.337-29.246.541.191 10.122 9.188 21.292 19.994 33.197 32.118 36.619 34.853 43.6 34.853 16.01 0 28.728-19.527 20.588-31.61-3.675-5.455-11.424-14.175-23.248-26.161-5.573-5.649-10.132-10.402-10.132-10.562 0-.16-4.314-4.647-9.586-9.97-5.272-5.324-9.435-10.1-9.25-10.613.185-.513 10.082-10.979 21.994-23.258 20.861-21.504 29.217-30.869 31.682-35.51 2.959-5.572.135-16.187-5.917-22.239s-16.667-8.876-22.239-5.917c-4.643 2.466-14.01 10.82-35.524 31.679-12.287 11.914-22.753 21.812-23.258 21.997-.505.185-5.275-3.978-10.599-9.25-5.323-5.272-9.798-9.586-9.943-9.586-.145 0-6.023-5.647-13.062-12.549-24.271-23.8-30.205-26.788-41.661-20.975M44 620v177h355V443H44v177m399 0v177h354V443H443v177m398 0v177h355V443H841v177M248.5 509.913c-4.167.69-6.471 2.568-12.486 10.177-4.322 5.467-5.08 6.413-9.202 11.483-1.822 2.24-4.212 5.324-5.312 6.854-2.146 2.984-10.02 13.16-13.986 18.073-2.671 3.309-11.874 15.513-15.014 19.909-1.1 1.54-4.025 5.381-6.5 8.536-7.185 9.16-11.783 15.387-31.766 43.013-11.604 16.043-13.093 18.378-17.695 27.746-4.711 9.59-4.783 14.549-.289 20.081 7.844 9.656 15.558 10.966 65.5 11.121L232 687v8.058c0 17.827 3.802 29.031 11.368 33.5 4.293 2.536 13.778 2.337 19.823-.417 4.791-2.183 10.809-8.401 10.809-11.169 0-.865.502-2.074 1.116-2.688.621-.621 1.344-6.146 1.63-12.45.282-6.234.886-12.057 1.342-12.941.561-1.087 2.71-1.778 6.633-2.134 9.052-.821 16.698-5.837 22.413-14.705 3.769-5.846 3.843-11.522.234-17.941-4.641-8.257-12.239-12.097-23.959-12.107l-6.091-.006-.708-55.669c-.825-64.807-1.185-67.799-8.778-72.823-2.193-1.452-6.537-3.056-9.659-3.567-3.12-.511-5.673-.876-5.673-.81 0 .066-1.8.418-4 .782m296 24.062c-10.449 4.79-15.613 19.003-10.527 28.973 1.086 2.127 2.323 4.022 2.75 4.21.427.188 2.288 2.142 4.134 4.342 1.846 2.2 12.871 13.83 24.5 25.844 11.629 12.015 21.143 22.204 21.143 22.643 0 .438-9.507 10.633-21.127 22.655-11.619 12.022-22.644 23.658-24.5 25.858-1.855 2.2-3.723 4.154-4.15 4.342-1.969.868-4.723 8.453-4.723 13.009 0 12.18 9.981 22.149 22.175 22.149 2.726 0 5.939-.517 7.141-1.149 4.346-2.286 14.594-11.441 36.042-32.198C609.38 663.019 619.569 653.5 620 653.5c.431 0 10.62 9.519 22.642 21.153 21.448 20.757 31.696 29.912 36.042 32.198 3.195 1.68 11.923 1.402 15.616-.497 1.76-.906 4.822-3.268 6.804-5.25 5.001-5.001 6.896-9.149 6.896-15.094 0-4.711-2.716-12.284-4.723-13.168-.427-.188-2.288-2.142-4.134-4.342-1.846-2.2-12.871-13.83-24.5-25.844-11.629-12.015-21.143-22.204-21.143-22.643 0-.438 9.519-10.633 21.153-22.655 20.757-21.448 29.912-31.696 32.198-36.042.632-1.202 1.149-4.482 1.149-7.29C708 542.177 697.835 532 686 532c-4.701 0-12.275 2.719-13.158 4.723-.188.427-2.142 2.288-4.342 4.134-2.2 1.846-13.83 12.871-25.844 24.5-12.015 11.629-22.217 21.143-22.671 21.143-.454 0-10.649-9.547-22.656-21.215-12.006-11.668-22.954-22.158-24.329-23.311a353.287 353.287 0 01-4.997-4.285c-6.536-5.732-15.88-7.208-23.503-3.714m-319.853 74.368c-2.67 3.387-9.03 11.782-14.135 18.657l-9.281 12.5 4.634.745c2.549.409 8.922 1.027 14.161 1.373 8.087.533 9.729.382 10.875-.999 1.059-1.276 1.257-5.404.917-19.131-.238-9.627-.857-17.908-1.376-18.402-.573-.547-2.843 1.512-5.795 5.257M44 1018.5V1196h355V841H44v177.5m399 0V1196h354V841H443v177.5m398 0V1196h355V841H841v177.5M208.482 909.394c-6.695 1.276-17.609 5.884-18.315 7.734-.184.479-.974.872-1.757.872-2.157 0-18.68 16.75-22.687 23-7.66 11.945-9.945 19.532-9.938 33 .008 14.624 2.931 23.997 11.043 35.409 4.92 6.922 4.92 11.26 0 18.182-8.085 11.375-10.779 19.974-10.779 34.409 0 13.293.918 17.143 7.014 29.422 8.062 16.236 24.506 30.08 41.937 35.307 6.66 1.997 25.329 2.212 32 .369 6.086-1.682 17.503-7.57 23-11.862 4.858-3.794 15.947-15.248 15.98-16.506.011-.423 1.07-2.448 2.354-4.5 1.284-2.051 3.646-7.105 5.25-11.23 2.711-6.972 2.916-8.457 2.916-21.099 0-8.366-.451-14.522-1.172-16-.645-1.32-1.944-4.539-2.886-7.151-.943-2.612-2.05-4.75-2.461-4.75-.411 0-1-.787-1.309-1.75-.309-.963-1.937-4.135-3.617-7.05s-3.055-5.936-3.055-6.714c0-1.482 4.014-9.167 7.074-13.544.984-1.406 2.536-4.556 3.45-7 .914-2.443 2.183-5.523 2.819-6.843 1.538-3.194 1.549-28.974.013-32.198-.63-1.32-1.941-4.651-2.914-7.401-1.854-5.24-6.138-12.764-7.591-13.333-.468-.184-.851-.866-.851-1.517 0-1.568-8.352-10.41-14-14.822-5.592-4.368-18-10.431-24.054-11.754-8.139-1.778-20.141-2.075-27.464-.68M947.5 929.819c-4.256 1.449-10.665 6.671-14.163 11.54-8.066 11.228-4.151 19.333 22.29 46.156 20.688 20.985 29.534 30.501 29.209 31.418-.185.523-9.177 10.089-19.983 21.259-25.635 26.496-27.342 28.371-31.41 34.477-4.296 6.451-4.522 11.268-.866 18.484 4.402 8.686 12.128 13.847 20.729 13.847 6.446 0 12.998-4.858 33.694-24.981 5.225-5.081 14.34-13.95 20.256-19.709 5.916-5.76 11.17-10.323 11.675-10.141.505.182 10.964 10.077 23.243 21.989 21.504 20.861 30.869 29.217 35.51 31.682 3.312 1.759 9.917 1.392 14.775-.822 12.345-5.623 18.235-20.273 11.912-29.628-4.037-5.974-6.969-9.196-30.24-33.23-11.897-12.287-21.775-22.731-21.951-23.21-.314-.854 6.585-8.276 28.203-30.342 12.667-12.93 20.317-21.536 23.997-26.998 8.14-12.083-4.578-31.61-20.588-31.61-7 0-11.102 3.271-43.412 34.616-11.273 10.936-20.924 20.035-21.447 20.22-.917.325-10.433-8.521-31.418-29.209-22.119-21.805-32.365-28.413-40.015-25.808M213 953.594c-10.355 3.812-13.445 9.224-12.812 22.448.362 7.583.775 9.22 3.088 12.253 4.325 5.67 10.31 7.981 19.579 7.559 6.402-.291 8.509-.829 11.818-3.019 5.591-3.7 8.333-9.834 8.305-18.574-.03-9.137-3.159-15.814-8.998-19.198-2.506-1.453-18.065-2.542-20.98-1.469m-3.071 90.156c-7.325 3.71-9.929 8.692-9.929 18.994 0 11.384 3.519 17.655 11.651 20.761 2.456.938 5.677 1.483 7.157 1.212 17.919-3.284 20.728-4.75 23.146-12.078 1.799-5.451.992-17.21-1.519-22.139-2.884-5.66-10.538-9.5-18.935-9.5-4.717 0-7.401.638-11.571 2.75" fill="undefined" fill-rule="evenodd"/></svg>